<svg width="24" height="25" viewBox="0 0 24 25" fill="none" xmlns="http://www.w3.org/2000/svg">
<path d="M9.00551 5.24674C9.78176 4.61339 10.7533 5.04387 11.1756 6.20825C11.5978 7.37262 11.3108 8.82997 10.5346 9.46332C9.7583 10.0967 8.78674 9.66619 8.3645 8.50182C7.94227 7.33744 8.22925 5.8801 9.00551 5.24674ZM10.1324 8.3543C10.5003 8.05411 10.6363 7.36337 10.4362 6.81149C10.2361 6.25961 9.77559 6.05557 9.40767 6.35576C9.03975 6.65595 8.90372 7.3467 9.10385 7.89858C9.30398 8.45046 9.76447 8.65449 10.1324 8.3543Z" fill="#D96877"/>
<path d="M13.4055 16.0468C14.1818 15.4134 15.1533 15.8439 15.5756 17.0083C15.9978 18.1727 15.7108 19.63 14.9346 20.2634C14.1583 20.8967 13.1868 20.4662 12.7645 19.3019C12.3423 18.1375 12.6293 16.6801 13.4055 16.0468ZM14.5324 19.1543C14.9003 18.8542 15.0364 18.1634 14.8362 17.6115C14.6361 17.0597 14.1756 16.8556 13.8077 17.1558C13.4398 17.456 13.3037 18.1467 13.5039 18.6986C13.704 19.2505 14.1645 19.4545 14.5324 19.1543Z" fill="#D96877"/>
<rect width="3.24173" height="16.5826" transform="matrix(-0.7368 -0.676111 0.377637 -0.925954 10.072 21.0464)" fill="#D96877"/>
</svg>
