<svg width="24" height="24" viewBox="0 0 24 24" fill="none" xmlns="http://www.w3.org/2000/svg">
<ellipse cx="11.9652" cy="8.34786" rx="0.695652" ry="1.04348" fill="#B06876"/>
<path d="M11.7913 7.30431C11.9652 7.82605 11.7913 8.08692 11.7913 8.08692C11.6174 8.86953 11.2696 9.39127 11.0422 9.68835C10.7012 10.0291 10.9218 9.91301 10.0522 10.4347C9.35655 10.6956 8.90012 10.5182 8.48699 10.3685C8.07385 10.2189 7.82185 9.88055 7.50229 9.50571C7.18273 9.13087 6.93346 8.66422 6.77392 8.14213C6.57395 7.30431 6.40004 7.04344 6.40002 6.26083C6.40002 5.7391 6.40002 5.47823 6.57393 5.21736L6.74785 4.95649L7.09568 4.69562H7.96525L9.53045 4.90924L10.5739 5.47823L11.2696 6.26083L11.7913 7.30431Z" fill="#D96877"/>
<path d="M12.2164 7.24516C12.0425 7.75507 12.2164 8.01002 12.2164 8.01002C12.3903 8.77488 12.7381 9.28479 12.9654 9.57513C13.3064 9.90817 13.0858 9.7947 13.9553 10.3046C14.6508 10.5596 15.1072 10.3861 15.5203 10.2399C15.9333 10.0936 16.1853 9.76298 16.5048 9.39664C16.8243 9.0303 17.0736 8.57423 17.2331 8.06398C17.433 7.24516 17.6069 6.9902 17.6069 6.22534C17.6069 5.71543 17.6069 5.46048 17.4331 5.20553L17.2592 4.95057L16.9114 4.69562H16.0419L14.477 4.90439L13.4336 5.46048L12.7381 6.22534L12.2164 7.24516Z" fill="#D96877"/>
<rect x="7.0957" width="1.04348" height="5.21739" rx="0.521739" fill="#D96877"/>
<rect x="15.7914" width="1.04348" height="5.21739" rx="0.521739" fill="#D96877"/>
<path d="M7.8225 14.6086L11.9653 16.4347L16.2534 14.6086L16.5441 15.9503L16.8348 17.2919L16.5441 17.5155L16.2534 17.7391L15.9627 17.9627L15.672 18.1863L15.3812 18.4099L15.0905 18.6335L14.9452 18.8571L14.6544 19.3043L14.3637 19.7515L14.2184 19.9751L14.073 20.1987L13.9276 20.4223L13.7823 20.8695L13.6369 21.3167L13.4915 22.2111L13.3462 23.1055L13.2008 23.9999H10.8751L10.7297 23.1055L10.5843 22.2111L10.439 21.3167L10.2936 20.8695L10.1483 20.1987L9.85755 19.7515L9.56683 19.3043L9.13075 18.6335L8.84002 18.4099L8.5493 18.1863L8.11322 17.9627L7.8225 17.7391L7.53178 17.5155L7.0957 17.2919L7.53178 15.7267L7.8225 14.6086Z" fill="#B06876"/>
</svg>
