<svg width="24" height="24" viewBox="0 0 24 24" fill="none" xmlns="http://www.w3.org/2000/svg">
<path d="M10.07 2.81997L3.14002 8.36997C2.36002 8.98997 1.86002 10.3 2.03002 11.28L3.36002 19.24C3.60002 20.66 4.96002 21.81 6.40002 21.81H17.6C19.03 21.81 20.4 20.65 20.64 19.24L21.97 11.28C22.13 10.3 21.63 8.98997 20.86 8.36997L13.93 2.82997C12.86 1.96997 11.13 1.96997 10.07 2.81997Z" fill="#DA6877"/>
<path d="M14.22 10C13.315 10 12.505 10.44 12 11.115C11.7421 10.7694 11.4071 10.4887 11.0218 10.2951C10.6364 10.1016 10.2112 10.0005 9.78 10C8.245 10 7 11.25 7 12.795C7 13.39 7.095 13.94 7.26 14.45C8.05 16.95 10.485 18.445 11.69 18.855C11.86 18.915 12.14 18.915 12.31 18.855C13.515 18.445 15.95 16.95 16.74 14.45C16.905 13.94 17 13.39 17 12.795C17 11.25 15.755 10 14.22 10Z" fill="#DF8C9B"/>
</svg>
