<svg width="30" height="30" viewBox="0 0 30 30" fill="none" xmlns="http://www.w3.org/2000/svg">
<path d="M23.0554 10.9619C23.0554 17.016 17.8943 21.9239 11.5277 21.9239C5.16113 21.9239 0 17.016 0 10.9619C0 4.90783 5.16113 0 11.5277 0C17.8943 0 23.0554 4.90783 23.0554 10.9619ZM3.85102 10.9619C3.85102 14.9936 7.28799 18.2619 11.5277 18.2619C15.7674 18.2619 19.2044 14.9936 19.2044 10.9619C19.2044 6.9303 15.7674 3.66201 11.5277 3.66201C7.28799 3.66201 3.85102 6.9303 3.85102 10.9619Z" fill="#F7C8C8"/>
<path d="M18.125 22.1256C17.0202 21.0208 17.0202 19.2297 18.125 18.1249C19.2297 17.0202 21.0209 17.0202 22.1256 18.1249L27.9997 23.999C29.1044 25.1037 29.1044 26.8949 27.9997 27.9996C26.8949 29.1044 25.1038 29.1044 23.999 27.9996L18.125 22.1256Z" fill="#F7C8C8"/>
<g clip-path="url(#clip0_132_110)">
<path d="M11.457 13.7879L11.0297 13.3989C9.51214 12.0228 8.51024 11.1123 8.51024 10.0013C8.51024 9.09078 9.22335 8.38062 10.131 8.38062C10.6437 8.38062 11.1358 8.6193 11.457 8.99354C11.7782 8.6193 12.2703 8.38062 12.783 8.38062C13.6906 8.38062 14.4037 9.09078 14.4037 10.0013C14.4037 11.1123 13.4019 12.0228 11.8843 13.3989L11.457 13.7879Z" fill="#F7C8C8"/>
</g>
<defs>
<clipPath id="clip0_132_110">
<rect width="7.07221" height="7.07222" fill="white" transform="translate(7.92088 7.49658)"/>
</clipPath>
</defs>
</svg>
