<svg width="798" height="241" viewBox="0 0 798 241" fill="none" xmlns="http://www.w3.org/2000/svg">
<path fill-rule="evenodd" clip-rule="evenodd" d="M9.757 1.30306C8.248 1.89606 6.755 3.19506 6.439 4.19106C6.124 5.18606 5.478 6.00005 5.004 6.00005C3.095 6.00005 4.72181e-07 17.089 0.18 23.288C0.355 29.319 0.372002 29.355 0.740002 24.5C0.949002 21.75 1.543 19.072 2.06 18.55C2.577 18.028 3 16.34 3 14.8C3 13.26 3.45 12 4 12C4.55 12 5 11.305 5 10.455C5 8.76203 9.331 4.00005 10.871 4.00005C11.4 4.00005 12.096 3.43805 12.417 2.75005C12.883 1.75005 13.117 1.75005 13.583 2.75005C13.904 3.43805 14.917 4.00404 15.833 4.00804C17.459 4.01504 20 8.09705 20 10.6991C20 11.4151 20.45 12 21 12C23.804 12 19.418 2.80105 16.019 1.55605C15.184 1.24905 14.05 0.825047 13.5 0.612047C12.95 0.399047 11.266 0.710057 9.757 1.30306ZM36.75 13.723C38.537 13.945 41.463 13.945 43.25 13.723C45.037 13.502 43.575 13.3201 40 13.3201C36.425 13.3201 34.963 13.502 36.75 13.723ZM30.75 15.662C31.438 15.94 32.563 15.94 33.25 15.662C33.938 15.385 33.375 15.158 32 15.158C30.625 15.158 30.063 15.385 30.75 15.662ZM51.079 18.5831C51.127 19.7481 51.364 19.985 51.683 19.188C51.972 18.466 51.936 17.603 51.604 17.271C51.272 16.939 51.036 17.5291 51.079 18.5831ZM48.625 30.75C48.207 31.988 47.221 33 46.433 33C45.645 33 45 33.45 45 34C45 34.55 44.325 35 43.5 35C42.675 35 42 35.45 42 36C42 36.55 41.325 37 40.5 37C39.675 37 39 37.45 39 38C39 38.55 37.875 39 36.5 39C35.125 39 34 39.45 34 40C34 40.55 32.65 41 31 41C29.35 41 28 41.45 28 42C28 42.603 23.853 43 17.559 43C11.677 43 6.848 43.437 6.5 44C6.149 44.567 6.99 45 8.441 45C9.848 45 11 45.45 11 46C11 46.564 13.833 47 17.5 47C21.167 47 24 46.564 24 46C24 45.45 26.25 45 29 45C31.75 45 34 44.55 34 44C34 43.45 34.9 43 36 43C37.1 43 38 42.55 38 42C38 41.45 38.687 41 39.526 41C41.852 41 50.193 32.205 49.759 30.211C49.456 28.821 49.243 28.923 48.625 30.75ZM1.557 30.908C1.249 31.407 1.418 32.869 1.935 34.158C2.813 36.349 2.877 36.29 2.937 33.25C3.001 29.964 2.581 29.251 1.557 30.908ZM634 38C634 38.55 631.75 39 629 39C626.25 39 624 39.45 624 40C624 40.55 623.265 41 622.366 41C620.541 41 616.003 45.812 616.001 47.75C616.001 48.438 615.55 49 615 49C614.45 49 614 50.035 614 51.3C614 52.565 613.501 54.0991 612.892 54.7081C612.21 55.3901 612.017 57.58 612.392 60.408C612.726 62.934 613.27 67.025 613.601 69.5C613.931 71.975 614.606 74 615.101 74C615.595 74 616 75.35 616 77C616 78.65 616.45 80 617 80C617.55 80 618 80.9 618 82C618 83.1 618.45 84 619 84C619.55 84 620 84.801 620 85.779C620 86.758 620.9 88.207 622 89C623.1 89.793 624 91.0621 624 91.8201C624 92.5771 625.35 94.459 627 96C628.65 97.541 630 99.297 630 99.901C630 100.506 630.45 101 631 101C631.55 101 632.034 101.563 632.076 102.25C632.118 102.938 635.969 106.875 640.635 111C657.177 125.624 656.648 125 652.5 125C651.125 125 650 125.45 650 126C650 126.55 648.65 127 647 127C645.35 127 644 127.45 644 128C644 128.55 643.266 129 642.369 129C641.471 129 636.667 131.071 631.693 133.603C621.573 138.752 612.148 147.435 608.069 155.366C605.255 160.837 604.728 170.16 606.981 174.589C610.707 181.914 621.845 189.958 631.5 192.296C637.938 193.855 652.97 194.257 657.943 193.003C667.419 190.613 676.99 187.472 676.995 186.75C676.998 186.337 677.9 186 679 186C680.1 186 681 185.55 681 185C681 184.45 681.9 184 683 184C684.1 184 685 183.55 685 183C685 182.45 685.694 182 686.542 182C687.39 182 689.05 181.1 690.23 180C691.411 178.9 692.967 178 693.689 178C694.41 178 695 177.55 695 177C695 176.45 695.9 176 697 176C698.1 176 699 175.55 699 175C699 174.45 699.675 174 700.5 174C701.325 174 702 173.55 702 173C702 172.45 702.675 172 703.5 172C704.325 172 705 171.55 705 171C705 170.45 705.675 170 706.5 170C707.325 170 708 169.55 708 169C708 168.45 708.675 168 709.5 168C710.325 168 711 167.55 711 167C711 166.45 711.675 166 712.5 166C713.333 166 714 166.889 714 168C714 169.1 713.55 170 713 170C712.45 170 712 171.125 712 172.5C712 173.875 711.55 175 711 175C710.45 175 710 175.675 710 176.5C710 177.325 709.66 178 709.244 178C708.828 178 707.926 179.237 707.239 180.75C704.822 186.075 689.5 203 687.098 203C686.494 203 686 203.45 686 204C686 204.55 685.424 205 684.721 205C684.017 205 682.793 205.9 682 207C681.207 208.1 679.983 209 679.279 209C678.576 209 678 209.45 678 210C678 210.55 677.325 211 676.5 211C675.675 211 675 211.395 675 211.879C675 212.362 673.65 213.317 672 214C670.35 214.683 669 215.638 669 216.121C669 216.605 668.1 217 667 217C665.9 217 665 217.373 665 217.829C665 218.285 662.638 219.681 659.75 220.932C656.862 222.183 653.15 223.808 651.5 224.543C645.556 227.193 630.208 232 627.69 232C626.276 232 624.84 232.45 624.5 233C624.16 233.55 621.749 234 619.141 234C616.533 234 613.973 234.411 613.45 234.913C612.505 235.822 603.489 236.557 580.428 237.606C571.568 238.009 566.874 237.768 562.782 236.7C557.798 235.398 556.858 235.412 553.924 236.834C551.472 238.021 550.539 238.117 550.237 237.212C550.015 236.545 548.971 236 547.917 236C546.862 236 546 235.55 546 235C546 234.45 545.1 234 544 234C542.9 234 542 233.55 542 233C542 232.45 541.519 232 540.93 232C537.801 232 522.642 218.734 520.077 213.75C519.299 212.237 518.288 211 517.831 211C517.374 211 517 210.1 517 209C517 207.9 516.55 207 516 207C515.45 207 515 204.948 515 202.441C515 199.317 514.646 198.101 513.874 198.578C512.162 199.636 513.475 209.044 516.043 214.122C518.383 218.751 530.36 231 532.545 231C533.254 231 533.983 231.394 534.167 231.875C534.35 232.356 537.2 234.096 540.5 235.74C548.001 239.478 554.773 240.198 581.794 240.13C601.248 240.081 606.963 239.499 622.764 235.956C625.11 235.43 628.147 235 629.514 235C630.881 235 632 234.55 632 234C632 233.45 633.131 233 634.514 233C635.896 233 637.809 232.605 638.764 232.123C639.719 231.64 642.3 230.711 644.5 230.057C648.577 228.845 652.128 227.465 655.236 225.883C656.191 225.397 657.879 225 658.986 225C660.094 225 661 224.55 661 224C661 223.45 661.9 223 663 223C664.1 223 665 222.55 665 222C665 221.45 665.801 221 666.779 221C667.758 221 669.207 220.1 670 219C670.793 217.9 672.242 217 673.221 217C674.199 217 675 216.55 675 216C675 215.45 675.608 215 676.352 215C677.095 215 679.116 213.65 680.843 212C682.569 210.35 684.434 209 684.987 209C686.55 209 702.556 193.258 705.694 188.635C707.237 186.361 709.288 183.628 710.25 182.561C711.212 181.495 712 180.033 712 179.311C712 178.59 712.45 178 713 178C713.55 178 714 177.1 714 176C714 174.9 714.45 174 715 174C715.55 174 716 173.1 716 172C716 170.9 716.45 170 717 170C717.55 170 718 169.1 718 168C718 166.9 718.45 166 719 166C719.55 166 720 164.65 720 163C720 161.35 720.45 160 721 160C721.55 160 722 159.521 722 158.935C722 158.349 724.15 155.762 726.778 153.185C729.405 150.608 732.646 146.925 733.979 145C735.313 143.075 736.65 141.275 736.952 141C737.253 140.725 738.375 138.925 739.444 137C741.625 133.072 743.443 131 744.708 131C745.176 131 746.22 130.045 747.029 128.877C747.838 127.71 749.063 126.167 749.75 125.449C750.438 124.731 751 123.436 751 122.571C751 121.707 751.405 121 751.899 121C753.06 121 754.015 114.103 754.635 101.25C754.906 95.613 755.55 91 756.064 91C756.579 91 757 88.075 757 84.5C757 80.833 757.436 78 758 78C758.55 78 759 76.2 759 74C759 71.8 759.45 70 760 70C760.55 70 761 69.1 761 68C761 66.9 761.45 66 762 66C762.55 66 763 65.1 763 64C763 62.9 763.45 62 764 62C764.55 62 765 61.538 765 60.974C765 59.28 773.369 51.447 776.802 49.927C778.561 49.149 780 48.1721 780 47.7561C780 47.3401 781.8 47 784 47C786.2 47 788 46.55 788 46C788 44.548 793.757 44.77 794.247 46.241C794.55 47.151 795.094 47.049 796.283 45.86C797.175 44.968 797.626 43.96 797.286 43.619C796.254 42.587 782.163 42.927 781.5 44C781.16 44.55 780.009 45 778.941 45C777.873 45 777 45.45 777 46C777 46.55 776.366 47 775.591 47C773.969 47 763 57.0761 763 58.5661C763 59.1121 762.1 60.207 761 61C759.9 61.793 759 63.2421 759 64.2211C759 65.1991 758.55 66 758 66C757.45 66 757 67.35 757 69C757 70.65 756.55 72 756 72C755.45 72 755 73.8 755 76C755 78.2 754.55 80 754 80C753.397 80 753 84.167 753 90.5C753 96.833 752.603 101 752 101C751.417 101 751 104.333 751 109C751 113.667 750.583 117 750 117C749.45 117 749 118.157 749 119.571C749 122.16 746.988 125 745.155 125C744.611 125 743.94 125.563 743.662 126.25C743.385 126.938 743.122 126.278 743.079 124.784C742.954 120.5 739.915 115.021 737.565 114.844C730.084 114.281 727.615 116.304 727.615 123C727.615 127.637 729.428 131 731.929 131C732.518 131 733 131.398 733 131.883C733 132.369 733.9 133.002 735 133.29C736.934 133.795 737.902 137 736.121 137C735.638 137 734.72 138.237 734.081 139.75C732.733 142.938 726.974 149.412 724.713 150.28C723.839 150.615 722.925 150.248 722.614 149.437C722.311 148.647 722.499 148 723.031 148C724.32 148 724.29 132.297 723 131.5C722.45 131.16 722 128.46 722 125.5C722 122.54 721.55 119.84 721 119.5C720.45 119.16 720 117.559 720 115.941C720 114.323 719.55 113 719 113C718.45 113 718 111.65 718 110C718 108.35 717.55 107 717 107C716.45 107 716 105.875 716 104.5C716 103.125 715.55 102 715 102C714.45 102 714 101.1 714 100C714 98.9 713.55 98 713 98C712.45 98 712 97.1 712 96C712 94.9 711.55 94 711 94C710.45 94 710 93.1 710 92C710 90.9 709.622 90 709.161 90C708.699 90 707.801 88.8581 707.165 87.4621C706.529 86.0671 705.548 84.3791 704.986 83.7121C702.41 80.6601 700.381 78.0031 699 75.8771C696.856 72.5751 679.271 55 678.112 55C677.579 55 676.548 54.432 675.821 53.737C672.618 50.675 658.734 43 656.398 43C655.629 43 655 42.55 655 42C655 41.45 653.875 41 652.5 41C651.125 41 650 40.55 650 40C650 39.429 647 39 643 39C639 39 636 38.571 636 38C636 37.45 635.55 37 635 37C634.45 37 634 37.45 634 38ZM59 42C59 42.556 61.667 43 65 43C70.695 43 71 43.1241 71 45.4411C71 46.7841 71.45 48.16 72 48.5C73.247 49.271 73.366 82 72.121 82C71.638 82 70.651 83.462 69.928 85.25C69.205 87.038 68.363 88.725 68.057 89C66.973 89.973 65 93.99 65 95.222C65 95.91 66.013 95.023 67.25 93.253C68.487 91.483 69.838 90.027 70.25 90.017C71.388 89.991 71.147 107.791 70 108.5C69.45 108.84 69 111.791 69 115.059C69 118.353 68.554 121 68 121C67.45 121 67 123.25 67 126C67 128.75 66.55 131 66 131C65.45 131 65 132.8 65 135C65 137.2 64.55 139 64 139C63.45 139 63 140.323 63 141.941C63 143.559 62.55 145.16 62 145.5C61.45 145.84 61 147.19 61 148.5C61 149.81 60.55 151.16 60 151.5C59.45 151.84 59 152.991 59 154.059C59 155.127 58.55 156 58 156C57.45 156 57 156.707 57 157.571C57 159.367 54.665 162 53.071 162C52.482 162 52 162.45 52 163C52 163.55 51.325 164 50.5 164C49.675 164 49 163.55 49 163C49 162.45 48.325 162 47.5 162C46.301 162 46 160.507 46 154.559C46 150.466 46.45 146.84 47 146.5C47.55 146.16 48 144.552 48 142.927C48 141.302 48.412 139.191 48.916 138.236C49.42 137.281 50.883 133.015 52.166 128.755C53.45 124.495 54.838 121.008 55.25 121.005C55.662 121.002 56 119.965 56 118.7C56 117.435 56.38 115.972 56.844 115.45C57.308 114.927 58.732 111.8 60.008 108.5C61.283 105.2 62.634 102.05 63.008 101.5C64.381 99.485 64.911 97 63.969 97C63.436 97 63 97.675 63 98.5C63 99.325 62.55 100 62 100C61.45 100 61 101.125 61 102.5C61 103.875 60.662 105.004 60.25 105.008C59.352 105.017 57 109.86 57 111.699C57 112.415 56.631 113 56.181 113C55.73 113 54.749 115.25 54 118C53.251 120.75 52.368 123 52.038 123C51.707 123 50.836 125.138 50.103 127.75C49.369 130.362 48.178 134.333 47.456 136.573C46.734 138.814 45.658 144.214 45.064 148.573C43.926 156.931 44.622 161.765 47.359 164.502C49.036 166.179 54 166.551 54 165C54 164.45 54.602 164 55.337 164C56.797 164 63.692 156.829 65.844 153.072C70.114 145.619 71 143.797 71 142.47C71 141.661 71.45 141 72 141C72.55 141 73 139.65 73 138C73 136.35 73.45 135 74 135C74.55 135 75 133.65 75 132C75 130.35 75.45 129 76 129C76.55 129 77 126.975 77 124.5C77 122.025 77.45 120 78 120C78.564 120 79 117.167 79 113.5C79 109.833 79.436 107 80 107C80.631 107 81 100.167 81 88.5C81 76.833 81.369 70 82 70C82.55 70 83 69.1 83 68C83 66.9 83.366 66 83.813 66C84.261 66 85.245 64.425 86 62.5C86.755 60.575 87.642 59 87.971 59C88.3 59 89.404 57.586 90.425 55.857C93.535 50.593 101.934 43 104.647 43C107.523 43 112 47.1131 112 49.7551C112 50.7701 112.499 52.0991 113.108 52.7081C113.808 53.4081 113.976 55.6 113.565 58.658C113.206 61.321 112.669 66.313 112.371 69.75C112.073 73.188 111.418 76 110.915 76C110.412 76 110 77.8 110 80C110 82.2 109.55 84 109 84C108.45 84 108 85.3231 108 86.9411C108 88.5591 107.55 90.16 107 90.5C106.45 90.84 106 91.949 106 92.965C106 95.354 102.175 102.693 99.085 106.233C97.07 108.541 95.868 109 91.835 109C88.369 109 87 108.606 87 107.607C87 106.841 86.348 105.964 85.551 105.658C83.628 104.92 84.606 107.731 87.323 110.75C89.794 113.495 94.425 113.696 98.178 111.221C101.989 108.707 109 102.089 109 101.005C109 100.502 110.125 98.966 111.5 97.591C112.875 96.216 114 93.9451 114 92.5451C114 91.1451 114.45 90 115 90C115.55 90 116 89.1 116 88C116 86.9 116.45 86 117 86C117.55 86 118 84.65 118 83C118 81.35 118.45 80 119 80C119.55 80 120 77.75 120 75C120 72.25 120.45 70 121 70C121.588 70 122 66.5 122 61.5C122 56.5 121.588 53 121 53C120.45 53 120 51.875 120 50.5C120 49.125 119.55 48 119 48C118.45 48 118 47.518 118 46.929C118 45.544 115.456 43 114.071 43C113.482 43 113 42.55 113 42C113 41.444 110.33 41 106.991 41C101.001 41 98.197 42.421 93.601 47.785C92.995 48.491 92.034 49.616 91.464 50.285C90.894 50.953 89.094 53.3 87.464 55.5C81.437 63.634 81 63.5221 81 53.8331C81 49.9441 80.569 47 80 47C79.45 47 79 46.355 79 45.567C79 44.779 78.1 43.849 77 43.5C75.9 43.151 75 42.4461 75 41.9331C75 41.4201 71.4 41 67 41C62.333 41 59 41.417 59 42ZM356 42C356 42.55 355.1 43 354 43C352.9 43 352 43.45 352 44C352 44.55 351.506 45 350.901 45C349.056 45 343.935 51.144 341.399 56.401C339.423 60.497 339 62.9331 339 70.2121C339 78.3681 339.278 79.601 342.598 86.194C344.577 90.124 346.827 93.969 347.598 94.741C348.369 95.512 349 96.529 349 97C349 97.471 349.617 98.474 350.37 99.227C351.124 99.981 352.464 101.996 353.347 103.704C354.231 105.413 355.526 107.433 356.227 108.194C357.41 109.48 358.682 111.519 361.406 116.5C362.008 117.6 362.727 118.725 363.005 119C365.667 121.633 367.273 143.524 365.117 147.764C364.631 148.719 363.618 150.847 362.867 152.493C361.334 155.849 355.619 162 354.033 162C353.465 162 353 162.45 353 163C353 163.593 349.333 164 344 164C338.667 164 335 163.593 335 163C335 162.45 334.31 162 333.467 162C331.682 162 325.779 156.364 324.54 153.478C323.699 151.519 323.686 151.519 323.231 153.462C322.978 154.541 323.273 155.591 323.886 155.795C324.499 156 325 156.825 325 157.629C325 159.563 329.495 164 331.455 164C332.305 164 333 164.45 333 165C333 165.55 335.212 166 337.917 166C340.872 166 343.066 166.499 343.417 167.25C343.883 168.25 344.117 168.25 344.583 167.25C344.954 166.457 347.328 166 351.083 166C354.361 166 357 165.554 357 165C357 164.45 357.9 164 359 164C360.1 164 361 163.55 361 163C361 162.45 361.531 162 362.18 162C363.766 162 372 153.079 372 151.361C372 150.613 372.45 150 373 150C373.55 150 374 148.875 374 147.5C374 146.125 374.45 145 375 145C375.606 145 376 140.667 376 134C376 127.333 375.606 123 375 123C374.45 123 374 121.65 374 120C374 118.35 373.55 117 373 117C372.45 117 372 116.1 372 115C372 113.9 371.626 113 371.169 113C370.712 113 369.7 111.762 368.921 110.25C368.141 108.738 367.277 107.275 367.002 107C365.562 105.565 357 91.878 357 91.012C357 90.455 356.622 90 356.161 90C355.208 90 353.574 86.7641 350.864 79.5141C348.835 74.0871 348.25 59.358 349.94 56.236C350.456 55.281 351.127 53.3151 351.429 51.8671C351.732 50.4181 353.29 47.8311 354.891 46.1171C357.342 43.4931 358.537 43 362.447 43C366.044 43 367.644 43.553 369.545 45.455C370.895 46.805 372 48.605 372 49.455C372 50.305 372.45 51 373 51C373.55 51 374 52.8 374 55C374 57.2 374.45 59 375 59C375.55 59 376 56.75 376 54C376 51.25 375.55 49 375 49C374.45 49 374 48.1381 374 47.0841C374 45.9161 372.828 44.649 371 43.84C369.35 43.109 368 42.1721 368 41.7561C368 41.3401 365.3 41 362 41C358.667 41 356 41.444 356 42ZM642 42C642 42.55 644.025 43 646.5 43C648.975 43 651 43.45 651 44C651 44.55 652.125 45 653.5 45C654.875 45 656 45.45 656 46C656 46.55 657.125 47 658.5 47C659.875 47 661 47.45 661 48C661 48.55 661.9 49 663 49C664.1 49 665 49.45 665 50C665 50.55 665.801 51 666.779 51C667.758 51 669.207 51.9 670 53C670.793 54.1 672.002 55 672.687 55C675.59 55 695.799 75.0191 699.074 81.1391C699.732 82.3681 701.11 84.2751 702.135 85.3761C703.161 86.4761 704 87.967 704 88.689C704 89.41 704.45 90 705 90C705.55 90 706 90.863 706 91.917C706 92.971 706.337 93.983 706.75 94.167C707.83 94.647 712 102.929 712 104.595C712 105.368 712.45 106 713 106C713.55 106 714 107.125 714 108.5C714 109.875 714.45 111 715 111C715.55 111 716 112.35 716 114C716 115.65 716.45 117 717 117C717.55 117 718 119.25 718 122C718 124.75 718.45 127 719 127C719.613 127 720 131.833 720 139.5C720 147.167 719.613 152 719 152C718.45 152 718 153.145 718 154.545C718 157.231 714.012 162 711.766 162C711.038 162 709.793 162.9 709 164C708.207 165.1 706.983 166 706.279 166C705.576 166 705 166.45 705 167C705 167.55 704.325 168 703.5 168C702.675 168 702 168.45 702 169C702 169.55 701.325 170 700.5 170C699.675 170 699 170.45 699 171C699 171.55 698.325 172 697.5 172C696.675 172 696 172.45 696 173C696 173.55 695.1 174 694 174C692.9 174 692 174.378 692 174.84C692 175.303 687.837 177.85 682.75 180.502C677.663 183.153 673.35 185.7 673.167 186.161C672.983 186.622 671.521 187 669.917 187C668.313 187 667 187.403 667 187.895C667 189.118 660.606 190.012 647.377 190.639C635.658 191.194 631.692 190.434 622.905 185.952C618.065 183.482 611 177.26 611 175.467C611 174.752 610.438 173.979 609.75 173.75C608.003 173.167 608.245 160.804 610.073 157.273C612.137 153.282 621.297 143 622.788 143C623.212 143 624.207 142.1 625 141C625.793 139.9 627.242 139 628.221 139C629.199 139 630 138.55 630 138C630 137.45 630.9 137 632 137C633.1 137 634 136.55 634 136C634 135.45 634.9 135 636 135C637.1 135 638 134.55 638 134C638 133.45 638.9 133 640 133C641.1 133 642 132.55 642 132C642 131.45 643.35 131 645 131C646.65 131 648 130.55 648 130C648 129.45 649.575 129 651.5 129C653.425 129 655 128.55 655 128C655 127.45 656.575 127 658.5 127C660.425 127 662 127.45 662 128C662 128.55 662.675 129 663.5 129C664.325 129 665 129.45 665 130C665 130.55 665.9 131 667 131C668.1 131 669 131.45 669 132C669 132.55 670.35 133 672 133C673.65 133 675 133.45 675 134C675 135.589 685.927 135.216 687.571 133.571C688.357 132.786 689 130.729 689 129C689 124.89 686.975 123 682.571 123C680.607 123 679 122.55 679 122C679 121.45 677.65 121 676 121C674.35 121 673 121.45 673 122C673 122.571 670 123 666 123C662 123 659 122.571 659 122C659 121.45 658.424 121 657.721 121C657.017 121 655.793 120.1 655 119C654.207 117.9 652.983 117 652.279 117C651.576 117 651 116.55 651 116C651 115.45 650.544 115 649.986 115C648.662 115 632 98.3381 632 97.0141C632 96.4561 631.55 96 631 96C630.45 96 630 95.325 630 94.5C630 93.675 629.55 93 629 93C628.45 93 628 92.4241 628 91.7211C628 91.0171 627.1 89.793 626 89C624.9 88.207 624 86.758 624 85.779C624 84.801 623.633 84 623.184 84C620.883 84 615 66.3511 615 59.4461C615 54.2031 620.051 45 622.929 45C623.518 45 624 44.55 624 44C624 43.45 625.35 43 627 43C628.65 43 630 42.55 630 42C630 41.444 632.667 41 636 41C639.333 41 642 41.444 642 42ZM55 44C55 44.55 55.477 45 56.059 45C56.641 45 56.84 44.55 56.5 44C56.16 43.45 55.684 43 55.441 43C55.198 43 55 43.45 55 44ZM239.25 51.4581C236.913 53.8411 235 56.287 235 56.895C235 57.503 234.663 58.004 234.25 58.008C233.352 58.017 231 62.8601 231 64.6991C231 65.4151 230.55 66 230 66C229.45 66 229 66.9061 229 68.0141C229 69.1211 228.603 70.8091 228.117 71.7641C225.621 76.6701 223.196 84.513 220.468 96.5C219.592 100.35 218.269 105.975 217.527 109C216.786 112.025 215.612 117.65 214.919 121.5C214.226 125.35 213.286 128.928 212.829 129.45C212.373 129.973 212 131.408 212 132.641C212 133.874 211.55 135.16 211 135.5C210.45 135.84 210 137.19 210 138.5C210 139.81 209.55 141.16 209 141.5C208.45 141.84 208 142.991 208 144.059C208 145.127 207.55 146 207 146C206.45 146 206 146.9 206 148C206 149.1 205.55 150 205 150C204.45 150 204 150.675 204 151.5C204 152.325 203.55 153 203 153C202.45 153 202 153.465 202 154.033C202 154.602 200.432 156.635 198.515 158.551C195.426 161.641 194.798 161.892 192.978 160.768C189.451 158.589 189.271 154.178 192.05 138C193.854 127.498 194.338 115.231 193.071 112.171C191.455 108.27 187.557 106.171 184.952 107.798C183.893 108.459 182.4 109 181.634 109C180.121 109 173.417 115.278 171 118.959C170.175 120.215 167.815 123.022 165.755 125.198C162.421 128.719 161.845 128.988 160.505 127.648C159.355 126.498 159 123.65 159 115.571C159 105.057 158.987 105 156.582 105C151.95 105 151 105.954 151 110.607C151 113.023 150.55 115 150 115C149.429 115 149 118 149 122C149 126 148.571 129 148 129C147.45 129 147 129.681 147 130.514C147 131.346 146.599 132.809 146.109 133.764C145.62 134.719 144.157 137.75 142.859 140.5C141.562 143.25 140.162 145.65 139.75 145.833C139.338 146.017 139 146.823 139 147.626C139 149.339 138.093 150.532 131.798 157.096C126.949 162.153 123.998 163.141 121.429 160.571C119.755 158.898 119.373 145 121 145C121.556 145 122 142.333 122 139C122 135.667 122.444 133 123 133C123.556 133 124 130.333 124 127C124 123.667 124.444 121 125 121C126.616 121 126.237 108.094 124.571 106.429C121.616 103.474 118 105.95 118 110.929C118 112.618 117.55 114 117 114C116.45 114 116 116.025 116 118.5C116 120.975 115.55 123 115 123C114.45 123 114 125.25 114 128C114 130.75 113.55 133 113 133C112.45 133 112 134.998 112 137.441C112 139.884 111.55 142.16 111 142.5C110.45 142.84 110 147.162 110 152.104C110 160.312 110.213 161.304 112.455 163.545C114.47 165.561 115.9 166 120.455 166C123.505 166 126 165.55 126 165C126 164.45 126.63 164 127.4 164C129.207 164 135.07 158.136 137 154.398C137.823 152.804 138.723 151.275 138.998 151C140.192 149.81 142 145.903 142 144.514C142 143.681 142.381 143 142.847 143C143.313 143 144.166 141.987 144.741 140.75C145.723 138.64 145.836 138.617 146.55 140.376C146.968 141.408 146.791 143.69 146.155 145.447C145.52 147.204 145 150.378 145 152.5C145 154.622 144.478 157.801 143.84 159.565C142.782 162.492 142.918 163.008 145.391 165.482L148.102 168.193L150.55 165.346C151.896 163.781 152.998 161.514 152.999 160.309C152.999 159.104 153.45 157.84 154 157.5C154.55 157.16 155 155.334 155 153.441C155 151.548 155.45 150 156 150C156.55 150 157 148.875 157 147.5C157 146.125 157.45 145 158 145C158.55 145 159 144.1 159 143C159 141.9 159.45 141 160 141C160.55 141 161 140.1 161 139C161 137.9 161.45 137 162 137C162.55 137 163 136.199 163 135.221C163 134.242 163.9 132.793 165 132C166.1 131.207 167 129.758 167 128.779C167 127.801 167.42 127 167.933 127C168.446 127 169.151 126.098 169.501 124.996C169.851 123.894 172.327 120.744 175.004 117.996C178.815 114.084 180.555 113 183.028 113H186.185L185.678 118.25C185.172 123.495 183.74 131.168 182.738 134C182.446 134.825 181.644 138.733 180.956 142.685C179.957 148.415 179.955 150.845 180.945 154.685C182.605 161.128 184.062 164 185.669 164C186.401 164 187 164.45 187 165C187 166.443 194.91 166.233 196.395 164.75C197.084 164.063 199.073 162.375 200.815 161C202.557 159.625 203.986 157.938 203.991 157.25C203.996 156.563 204.45 156 205 156C205.55 156 206 155.1 206 154C206 152.9 206.45 152 207 152C207.55 152 208 151.1 208 150C208 148.9 208.45 148 209 148C209.55 148 210 147.1 210 146C210 144.9 210.45 144 211 144C212.34 144 212.272 153.033 210.891 158.519C209.967 162.186 210.039 163.182 211.319 164.462C214.677 167.819 219.897 165.277 219.968 160.25C219.986 159.013 220.45 158 221 158C221.55 158 222 156.452 222 154.559C222 152.666 222.45 150.84 223 150.5C223.55 150.16 224 148.928 224 147.762C224 143.794 231.477 125 233.056 125C233.442 125 234.341 123.592 235.054 121.87C237.72 115.434 245 111.137 245 116C245 117.1 245.45 118 246 118C246.55 118 247 119.125 247 120.5C247 121.875 246.55 123 246 123C245.45 123 245 124.8 245 127C245 129.2 244.55 131 244 131C243.45 131 243 131.503 243 132.118C243 133.217 237.071 138.953 235.903 138.984C235.575 138.993 234.225 139.964 232.903 141.141L230.5 143.282L233.605 142.695C235.59 142.32 237.483 142.65 238.855 143.611C240.722 144.918 241 146.079 241 152.557C241 156.852 241.423 160 242 160C242.55 160 243 160.695 243 161.545C243 162.395 244.105 164.195 245.455 165.545C247.94 168.03 251 168.833 251 167C251 166.45 251.69 166 252.533 166C254.476 166 260.033 160.418 261.998 156.493C262.823 154.847 263.89 153.215 264.37 152.866C264.851 152.517 265.062 151.687 264.841 151.022C264.619 150.357 263.777 151.09 262.969 152.649C260.948 156.552 255.408 162 253.462 162C250.616 162 249 159.309 249 154.571C249 152.057 248.55 150 248 150C247.45 150 247 148.65 247 147C247 145.35 246.55 144 246 144C245.45 144 245 143.362 245 142.583C245 141.804 244.438 140.94 243.75 140.662C242.75 140.259 242.75 140.142 243.75 140.079C244.438 140.036 245 139.056 245 137.901C245 136.747 246.35 134.541 248 133C249.65 131.459 251 129.478 251 128.599C251 127.719 251.45 127 252 127C252.565 127 253 124.152 253 120.455C253 114.838 252.652 113.561 250.545 111.455C248.989 109.898 246.95 109 244.974 109C241.595 109 240.268 110.011 238.081 114.25C237.301 115.762 236.288 117 235.831 117C235.374 117 235 117.801 235 118.779C235 119.758 234.1 121.207 233 122C231.9 122.793 231 124.036 231 124.763C231 125.489 230.113 127.036 229.029 128.199C227.344 130.008 226.971 130.088 226.458 128.751C225.794 127.02 228.316 118.747 230.562 115.285C232.758 111.903 232.397 110.201 229.598 110.736C227.804 111.079 227.028 110.663 226.528 109.09C225.473 105.765 229.847 85.411 236.092 64.581C238.217 57.492 242.64 51 245.345 51C246.164 51 247.096 50.438 247.417 49.75C247.883 48.75 248.117 48.75 248.583 49.75C248.904 50.438 249.767 51 250.5 51C251.233 51 252.06 51.563 252.338 52.25C252.629 52.971 252.876 52.729 252.921 51.679C253.041 48.906 250.513 46.993 246.821 47.064C244.27 47.112 242.515 48.1311 239.25 51.4581ZM585.403 55.761C582.536 58.413 581 61.632 581 64.986C581 66.644 580.55 68 580 68C579.45 68 579 69.7731 579 71.9411C579 74.1091 578.55 76.16 578 76.5C577.45 76.84 577 79.5111 577 82.4371C577 88.9531 575.264 91.015 571.482 88.991C570.135 88.27 568.77 86.852 568.449 85.84C568.128 84.828 567.518 84 567.093 84C565.943 84 564 79.259 564 76.453C564 72.816 560.568 73.215 558.985 77.035C556.674 82.616 561.459 89.7081 571.043 94.9031C574.823 96.9531 574.767 96.573 572.962 108C570.875 121.208 570.135 125.571 569.484 128.5C568.329 133.694 563.94 141.958 558.676 148.85C552.413 157.05 551.491 158 549.792 158C549.049 158 547.793 158.9 547 160C544.946 162.85 538.992 162.711 536.312 159.75C532.686 155.743 530.84 144.117 533.127 139.684C534.525 136.973 540.645 131 542.024 131C543.641 131 554 120.207 554 118.522C554 117.685 554.45 117 555 117C555.55 117 556 114.933 556 112.406C556 108.654 555.634 107.717 554 107.29C552.9 107.002 552 106.369 552 105.883C552 104.527 547.643 104.833 543.742 106.463C539.694 108.155 533.143 114.253 531.081 118.25C530.301 119.762 529.288 121 528.831 121C528.374 121 528 121.9 528 123C528 124.1 527.55 125 527 125C526.45 125 526 125.9 526 127C526 128.1 525.55 129 525 129C524.45 129 524 129.655 524 130.455C524 132.311 518.378 144.272 515.048 149.5C509.098 158.841 502.329 162.471 498.326 158.468C496.556 156.699 496.285 146.315 497.964 144.636C498.534 144.066 499 142.79 499 141.8C499 140.81 499.45 140 500 140C500.55 140 501 138.65 501 137C501 135.35 501.45 134 502 134C502.578 134 503 130.833 503 126.5V119H498.429C493.744 119 492.203 118.117 490.13 114.244C489.152 112.415 489.306 111.321 491.01 107.98C494.169 101.788 495.09 99 493.975 99C493.439 99 493 99.6951 493 100.545C493 101.395 491.815 103.276 490.367 104.724C487.838 107.253 487.68 107.283 486.367 105.487C483.736 101.889 485.039 88.819 488.359 85.498C490.466 83.391 495 83.5291 495 85.7001C495 86.9691 495.288 87.1121 496.136 86.2641C498.063 84.3371 494.667 82 489.939 82C485.318 82 482.449 84.308 481.319 88.934C480.974 90.345 480.199 91.8211 479.596 92.2131C478.931 92.6461 478.5 96.587 478.5 102.236C478.5 110.506 478.751 111.814 480.75 113.961C482.908 116.278 483.999 123 482.218 123C481.788 123 480.823 125.138 480.073 127.75C479.323 130.362 478.383 132.95 477.985 133.5C477.587 134.05 476.684 136.3 475.979 138.5C474.774 142.257 471.766 146.987 467.75 151.438C466.788 152.504 466 153.913 466 154.567C466 155.222 464.65 156.317 463 157C461.35 157.683 460 158.638 460 159.121C460 159.605 459.127 160 458.059 160C456.991 160 455.84 160.45 455.5 161C455.16 161.55 453.784 162 452.441 162C451.098 162 450 161.55 450 161C450 160.45 449.04 160 447.866 160C444.789 160 441.286 155.395 440.531 150.355C438.631 137.687 446.01 112.401 452.178 110.443C453.18 110.125 454 109.446 454 108.933C454 107.884 458.004 107.681 460.418 108.607C461.288 108.941 462 110.291 462 111.607C462 112.923 462.45 114 463 114C463.55 114 464 112.65 464 111C464 109.35 463.55 108 463 108C462.45 108 462 107.375 462 106.611C462 105.019 456.222 103.651 453.384 104.571C446.518 106.796 436.747 115.8 433.582 122.818C432.545 125.118 431.315 127 430.848 127C430.382 127 430 127.663 430 128.473C430 130.32 424.858 141.383 423.79 141.833C423.356 142.017 423 142.737 423 143.435C423 144.133 421.65 146.116 420 147.843C418.35 149.569 417 151.436 417 151.991C417 152.546 416.55 153 416 153C415.45 153 415 153.637 415 154.416C415 155.195 413.65 156.43 412 157.16C410.35 157.891 409 158.828 409 159.244C409 159.66 408.325 160 407.5 160C406.675 160 406 160.45 406 161C406 161.55 404.365 162 402.366 162C396.912 162 394.432 158.558 393.624 149.868C393.27 146.052 393.281 141.728 393.65 140.259C394.361 137.425 398.204 133 399.955 133C400.53 133 401 132.55 401 132C401 131.45 401.576 131 402.279 131C402.983 131 404.207 130.1 405 129C405.793 127.9 406.844 127 407.336 127C408.667 127 415 119.814 415 118.305C415 117.587 415.45 117 416 117C416.55 117 417 115.005 417 112.567C417 109.013 416.604 108.009 415 107.5C413.9 107.151 413 106.446 413 105.933C413 104.263 407.152 104.949 403.396 107.059C399.07 109.488 392.388 116.202 391.495 119.017C391.148 120.108 390.508 121 390.072 121C389.636 121 388.156 124.488 386.783 128.75C382.134 143.18 380.96 150.239 383 151.5C383.55 151.84 384 153.246 384 154.625C384 157.657 385.471 160.562 388.583 163.673C390.607 165.698 391.889 166 398.455 166C402.605 166 406 165.599 406 165.108C406 164.618 407.087 163.944 408.416 163.61C410.675 163.044 419 155.906 419 154.537C419 154.195 419.9 152.95 421 151.77C422.1 150.589 423 149.033 423 148.311C423 147.59 423.45 147 424 147C424.55 147 425 146.1 425 145C425 143.9 425.36 143 425.799 143C426.745 143 429 148.896 429 151.371C429 155.497 435.365 164 438.455 164C439.305 164 440 164.45 440 165C440 165.589 443.515 166 448.545 166C456.254 166 457.328 165.763 459.513 163.578C460.846 162.245 462.738 160.884 463.718 160.553C465.694 159.885 472 151.966 472 150.152C472 149.518 472.45 149 473 149C473.55 149 474 148.325 474 147.5C474 146.675 474.34 146 474.756 146C475.172 146 476.138 144.538 476.903 142.75C477.668 140.962 479.127 137.728 480.147 135.562C481.166 133.396 482 130.134 482 128.312C482 126.49 482.45 125 483 125C483.55 125 484 124.1 484 123C484 120.147 489.607 120.241 492.118 123.136C493.958 125.258 493.788 130.067 491.845 130.833C491.38 131.017 491 132.029 491 133.083C491 134.138 490.55 135 490 135C489.45 135 489 135.873 489 136.941C489 138.009 488.55 139.16 488 139.5C487.45 139.84 487 141.64 487 143.5C487 145.36 486.55 147.16 486 147.5C483.649 148.953 485.99 157.959 489.705 161.75C490.917 162.987 493.017 164 494.371 164C495.725 164 497.096 164.563 497.417 165.25C497.883 166.25 498.117 166.25 498.583 165.25C498.904 164.563 500.719 164 502.617 164C505.22 164 506.918 163.149 509.533 160.533C511.44 158.627 513 156.602 513 156.033C513 155.465 513.366 155 513.813 155C514.261 155 515.245 153.425 516 151.5C516.755 149.575 517.687 148 518.07 148C518.453 148 519.014 147.055 519.316 145.899C520.027 143.181 522 144.391 522 147.545C522 152.716 524.543 159.584 527.631 162.75C530.657 165.854 531.142 166 538.4 166C542.8 166 546 165.579 546 165C546 164.45 546.687 164 547.526 164C550.146 164 564 148.471 564 145.535C564 145.202 564.744 143.794 565.654 142.405C567.973 138.866 568.966 140.907 568.985 149.25C568.993 153.073 569.434 156 570 156C570.55 156 571 156.69 571 157.533C571 158.377 572.56 160.627 574.467 162.533C577.512 165.578 578.551 166 583.009 166C585.8 166 588.772 165.438 589.613 164.75C592.993 161.985 598.43 155.463 600.161 152.098C600.896 150.669 601.89 149.215 602.37 148.866C602.851 148.517 603.042 147.626 602.795 146.886C602.503 146.008 601.679 146.576 600.426 148.52C599.369 150.159 597.491 152.533 596.252 153.795C595.013 155.058 594 156.452 594 156.892C594 158.433 590.252 162 588.633 162C587.735 162 587 162.45 587 163C587 163.55 585.833 164 584.406 164C582.654 164 581.643 163.351 581.29 162C581.002 160.9 580.341 160 579.821 160C579.253 160 579.084 155.707 579.397 149.25C580.17 133.34 581.066 125 582.003 125C582.461 125 583.081 121.962 583.38 118.25C584.407 105.507 585.219 100.638 586.537 99.3201C587.409 98.4481 590.557 98 595.814 98C601.169 98 604.708 97.4861 606.636 96.4281C609.384 94.9191 609.193 94.881 601.892 95.5C597.708 95.854 592.645 95.837 590.642 95.461L587 94.7771V86.3891C587 81.4631 587.413 78 588 78C588.564 78 589 75.167 589 71.5C589 67.833 589.436 65 590 65C590.55 65 591 62.798 591 60.107C591 56.568 590.562 55.046 589.418 54.607C587.347 53.812 587.582 53.744 585.403 55.761ZM251.63 57.25C250.692 60.752 250.895 65 252 65C252.55 65 253 62.75 253 60C253 54.577 252.575 53.724 251.63 57.25ZM249 69C249 70.65 248.55 72 248 72C247.45 72 247 73.35 247 75C247 76.65 246.55 78 246 78C245.45 78 245 79.35 245 81C245 82.65 244.55 84 244 84C243.45 84 243 85.35 243 87C243 88.65 242.55 90 242 90C241.45 90 241 90.9 241 92C241 93.1 240.55 94 240 94C239.45 94 239 94.9 239 96C239 97.1 239.45 98 240 98C240.55 98 241 97.4151 241 96.6991C241 94.8601 243.352 90.017 244.25 90.008C244.663 90.004 245 88.65 245 87C245 85.35 245.45 84 246 84C246.55 84 247 83.1 247 82C247 80.9 247.45 80 248 80C248.55 80 249 78.2 249 76C249 73.8 249.45 72 250 72C250.55 72 251 70.65 251 69C251 67.35 250.55 66 250 66C249.45 66 249 67.35 249 69ZM121.25 81.496C118.451 84.675 121.098 88 126.429 88C129.929 88 130 87.92 130 84C130 80.038 129.965 80 126.25 80.038C124.188 80.059 121.938 80.715 121.25 81.496ZM495 95C495 96.65 495.45 98 496 98C496.55 98 497 96.65 497 95C497 93.35 496.55 92 496 92C495.45 92 495 93.35 495 95ZM237 99.9411C237 102.356 237.556 102.599 238.349 100.532C238.659 99.7251 238.482 98.798 237.956 98.473C237.43 98.148 237 98.8091 237 99.9411ZM235 104.5C235 105.325 235.177 106 235.393 106C235.609 106 236.045 105.325 236.362 104.5C236.678 103.675 236.501 103 235.969 103C235.436 103 235 103.675 235 104.5ZM233 108.5C233 109.325 233.177 110 233.393 110C233.609 110 234.045 109.325 234.362 108.5C234.678 107.675 234.501 107 233.969 107C233.436 107 233 107.675 233 108.5ZM413 109.613C413 110.376 413.45 111 414 111C414.55 111 415 111.9 415 113C415 114.1 414.55 115 414 115C413.45 115 413 115.709 413 116.576C413 118.822 400.497 130.672 397.528 131.239C396.164 131.5 394.811 131.478 394.524 131.19C391.54 128.206 400.016 110.039 405.306 108.083C408.117 107.043 413 108.014 413 109.613ZM550.582 108C551.362 108 552 108.675 552 109.5C552 110.325 552.45 111 553 111C554.378 111 554.253 113.589 552.75 116.191C552.063 117.381 548.763 121.133 545.417 124.529C539.373 130.663 534.368 133.122 533.346 130.46C532.572 128.442 536.012 117.364 538.113 115.109C539.151 113.995 540 112.808 540 112.47C540 110.592 545.928 106.85 547.832 107.527C548.564 107.787 549.802 108 550.582 108ZM737.499 118.356C739.564 120.421 740.334 126.213 738.806 128.188C736.988 130.538 732.54 129.48 731.118 126.359C729.574 122.971 729.717 120.97 731.655 118.829C733.62 116.657 735.637 116.494 737.499 118.356ZM274.195 127.5C274.215 129.15 274.439 129.704 274.693 128.731C274.947 127.758 274.93 126.408 274.656 125.731C274.382 125.054 274.175 125.85 274.195 127.5ZM325.25 127.525C324.012 128.847 323 130.62 323 131.464C323 132.309 322.55 133 322 133C321.402 133 321 136.889 321 142.667C321 147.983 321.303 152.03 321.674 151.659C322.044 151.289 322.257 148.401 322.146 145.243C322.02 141.653 322.517 138.426 323.472 136.636C324.313 135.06 325 133.328 325 132.787C325 132.245 326.35 130.541 328 129C329.65 127.459 331 125.928 331 125.599C331 124.108 327.283 125.354 325.25 127.525ZM684.133 127.153C686.268 129.615 686.188 129.346 685.393 131.418C685.059 132.288 683.927 133 682.877 133C680.145 133 673 130.654 673 129.757C673 129.34 672.293 129 671.429 129C669.913 129 667 126.745 667 125.571C667 125.257 670.435 125 674.633 125C681.201 125 682.526 125.3 684.133 127.153ZM272.158 133C272.158 134.375 272.385 134.938 272.662 134.25C272.94 133.563 272.94 132.438 272.662 131.75C272.385 131.063 272.158 131.625 272.158 133ZM608.079 135.583C608.127 136.748 608.364 136.985 608.683 136.188C608.972 135.466 608.936 134.603 608.604 134.271C608.272 133.939 608.036 134.529 608.079 135.583ZM270.195 138.5C270.215 140.15 270.439 140.704 270.693 139.731C270.947 138.758 270.93 137.408 270.656 136.731C270.382 136.054 270.175 136.85 270.195 138.5ZM606.079 139.583C606.127 140.748 606.364 140.985 606.683 140.188C606.972 139.466 606.936 138.603 606.604 138.271C606.272 137.939 606.036 138.529 606.079 139.583ZM268.158 143C268.158 144.375 268.385 144.938 268.662 144.25C268.94 143.563 268.94 142.438 268.662 141.75C268.385 141.063 268.158 141.625 268.158 143ZM603.638 143.5C603.322 144.325 603.499 145 604.031 145C604.564 145 605 144.325 605 143.5C605 142.675 604.823 142 604.607 142C604.391 142 603.955 142.675 603.638 143.5ZM266.158 148C266.158 149.375 266.385 149.938 266.662 149.25C266.94 148.563 266.94 147.438 266.662 146.75C266.385 146.063 266.158 146.625 266.158 148ZM523 185.731C524.925 185.958 526.928 186.561 527.45 187.071C527.972 187.582 528.982 188 529.692 188C531.714 188 542 197.111 542 198.901C542 199.506 542.45 200 543 200C545.145 200 543.783 197.655 538.75 192.685C531.951 185.97 530.019 184.967 524.264 185.16C520.225 185.296 520.033 185.383 523 185.731ZM517.813 187.683C518.534 187.972 519.397 187.936 519.729 187.604C520.061 187.272 519.471 187.036 518.417 187.079C517.252 187.127 517.015 187.364 517.813 187.683ZM558.134 191.115C554.113 193.473 552.71 194.805 551.123 197.771C549.458 200.881 550.684 200.549 554.01 196.989C557.207 193.567 562.456 191.045 564.999 191.71C567.917 192.473 571 199.605 571 205.595C571 208.568 570.55 211 570 211C569.45 211 569 212.35 569 214C569 215.65 568.55 217 568 217C567.45 217 567 217.706 567 218.57C567 220.388 561.545 228.682 558.66 231.25C557.484 232.297 557.204 233 557.962 233C559.57 233 566 226.044 566 224.305C566 223.587 566.367 223 566.815 223C568.85 223 573.964 208.431 573.988 202.566C574.006 198.263 570.445 191.69 567.317 190.25C563.738 188.603 562.168 188.751 558.134 191.115ZM514.232 194C514.232 195.925 514.438 196.712 514.689 195.75C514.941 194.788 514.941 193.212 514.689 192.25C514.438 191.288 514.232 192.075 514.232 194Z" fill="#DC6773"/>
</svg>
